# xmcd
#
# Track frame offsets:
# 150
# 14251
# 34588
# 48317
# 69862
# 101057
# 115338
# 144567
# 166021
# 181047
# 194586
#
# Disc length: 3077 seconds
#
#
# Revision: 0
# Processed by: cddbd v1.5.2PL0 Copyright (c) Steve Scherf et al.
# Submitted via: FreeRIP 2.931 
#
DISCID=8a0c030b
DTITLE=Quramitry - Coffecups and Fairytales
DYEAR=2009
DGENRE=Bluegrass
TTITLE0=The Journey
TTITLE1=Street Painter
TTITLE2=Circus Girl
TTITLE3=Daisy's Funeral
TTITLE4=Easy
TTITLE5=Otis
TTITLE6=Lay Down
TTITLE7=Rose and Stone
TTITLE8=Pretty Drunk
TTITLE9=The Prophecy
TTITLE10=The Whiskey Song
EXTD=
EXTT0=
EXTT1=
EXTT2=
EXTT3=
EXTT4=
EXTT5=
EXTT6=
EXTT7=
EXTT8=
EXTT9=
EXTT10=
PLAYORDER=
